<?xml version="1.0" ?><svg style="enable-background:new 0 0 32 32;" version="1.1" viewBox="0 0 32 32" xml:space="preserve" xmlns="http://www.w3.org/2000/svg" xmlns:xlink="http://www.w3.org/1999/xlink"><style type="text/css">
	.st0{fill:#FF2A68;}
</style><g id="Layer_1"><g id="XMLID_65_"/></g><g id="Layer_2"><g id="XMLID_262_"><path class="st0" d="M11,24H9c-0.9,0-1.5-0.7-1.5-1.5v-8.9C7.4,12.7,8.1,12,9,12H11c0.9,0,1.5,0.7,1.5,1.5v8.9    C12.6,23.3,11.9,24,11,24z"/></g><g id="XMLID_261_"><path class="st0" d="M25.3,22.9l-8.9-5.2c-0.6-0.3-0.6-1.2,0-1.5l8.9-5.2c0.6-0.3,1.3,0.1,1.3,0.8v10.3    C26.6,22.8,25.8,23.2,25.3,22.9z"/></g><g id="XMLID_334_"><path d="M16,30.5C8,30.5,1.5,24,1.5,16S8,1.5,16,1.5S30.5,8,30.5,16S24,30.5,16,30.5z M16,2.5    C8.6,2.5,2.5,8.6,2.5,16c0,7.4,6.1,13.5,13.5,13.5c7.4,0,13.5-6.1,13.5-13.5C29.5,8.6,23.4,2.5,16,2.5z" id="XMLID_4_"/></g><g id="XMLID_263_"><path d="M10,22.5H8c-1.1,0-2-0.9-2-2v-5.9c0-0.3,0.2-0.5,0.5-0.5s0.5,0.2,0.5,0.5v5.9c0,0.6,0.5,1,1,1H10    c0.6,0,1-0.5,1-1v-8.9c0-0.6-0.5-1-1-1H8c-0.6,0-1,0.5-1,1v0.6c0,0.3-0.2,0.5-0.5,0.5s-0.5-0.2-0.5-0.5v-0.6c0-1.1,0.9-2,2-2H10    c1.1,0,2,0.9,2,2v8.9C12.1,21.6,11.2,22.5,10,22.5z" id="XMLID_3_"/></g><g id="XMLID_264_"><path d="M23.7,22.5c-0.2,0-0.5-0.1-0.7-0.2L18,19.4c-0.2-0.1-0.3-0.4-0.2-0.7c0.1-0.2,0.4-0.3,0.7-0.2l5.1,2.9    c0.2,0.1,0.3,0,0.4,0c0.1,0,0.2-0.1,0.2-0.3V10.8c0-0.2-0.1-0.3-0.2-0.3c-0.1,0-0.2-0.1-0.4,0l-8.9,5.2c-0.2,0.1-0.2,0.3-0.2,0.3    c0,0.1,0,0.2,0.2,0.3l2,1.1c0.2,0.1,0.3,0.4,0.2,0.7c-0.1,0.2-0.4,0.3-0.7,0.2l-2-1.1c-0.4-0.2-0.7-0.7-0.7-1.2s0.3-0.9,0.7-1.2    L23,9.6c0.4-0.2,0.9-0.2,1.4,0c0.4,0.2,0.7,0.7,0.7,1.2v10.3c0,0.5-0.3,0.9-0.7,1.2C24.2,22.4,23.9,22.5,23.7,22.5z" id="XMLID_2_"/></g></g></svg>