<?xml version="1.0" ?><svg style="enable-background:new 0 0 32 32;" version="1.1" viewBox="0 0 32 32" xml:space="preserve" xmlns="http://www.w3.org/2000/svg" xmlns:xlink="http://www.w3.org/1999/xlink"><style type="text/css">
	.st0{fill:#FF2A68;}
</style><g id="Layer_1"><g id="XMLID_65_"/></g><g id="Layer_2"><g id="XMLID_283_"><path class="st0" d="M24.5,23h-2.1c-0.9,0-1.5-0.7-1.5-1.5v-8.9c0-0.9,0.7-1.5,1.5-1.5h2.1c0.9,0,1.5,0.7,1.5,1.5v8.9    C26,22.3,25.3,23,24.5,23z"/></g><g id="XMLID_282_"><path class="st0" d="M9.6,12.1l8.9,5.2c0.6,0.3,0.6,1.2,0,1.5l-8.9,5.2c-0.6,0.3-1.3-0.1-1.3-0.8V12.9C8.3,12.2,9.1,11.8,9.6,12.1    z"/></g><g id="XMLID_376_"><path d="M16,30.5C8,30.5,1.5,24,1.5,16S8,1.5,16,1.5S30.5,8,30.5,16S24,30.5,16,30.5z M16,2.5    C8.6,2.5,2.5,8.6,2.5,16c0,7.4,6.1,13.5,13.5,13.5c7.4,0,13.5-6.1,13.5-13.5C29.5,8.6,23.4,2.5,16,2.5z" id="XMLID_5_"/></g><g id="XMLID_285_"><path d="M23.5,22.5h-2.1c-1.1,0-2-0.9-2-2v-8.9c0-1.1,0.9-2,2-2h2.1c1.1,0,2,0.9,2,2v0.8c0,0.3-0.2,0.5-0.5,0.5    s-0.5-0.2-0.5-0.5v-0.8c0-0.6-0.5-1-1-1h-2.1c-0.6,0-1,0.5-1,1v8.9c0,0.6,0.5,1,1,1h2.1c0.6,0,1-0.5,1-1V14c0-0.3,0.2-0.5,0.5-0.5    s0.5,0.2,0.5,0.5v6.5C25.5,21.6,24.6,22.5,23.5,22.5z" id="XMLID_4_"/></g><g id="XMLID_156_"><path d="M8.2,22.6c-0.2,0-0.5-0.1-0.7-0.2c-0.4-0.2-0.7-0.7-0.7-1.2V10.9c0-0.5,0.3-0.9,0.7-1.2    c0.4-0.2,0.9-0.2,1.4,0l8.9,5.2c0.4,0.2,0.7,0.7,0.7,1.2s-0.3,0.9-0.7,1.2l-1.9,1.1c-0.2,0.1-0.5,0.1-0.7-0.2    c-0.1-0.2-0.1-0.5,0.2-0.7l1.9-1.1c0.2-0.1,0.2-0.3,0.2-0.3c0-0.1,0-0.2-0.2-0.3l-8.9-5.2c-0.2-0.1-0.3,0-0.4,0    c-0.1,0-0.2,0.1-0.2,0.3v10.3c0,0.2,0.1,0.3,0.2,0.3c0.1,0,0.2,0.1,0.4,0l2.8-1.6c0.2-0.1,0.5-0.1,0.7,0.2    c0.1,0.2,0.1,0.5-0.2,0.7l-2.8,1.6C8.7,22.5,8.4,22.6,8.2,22.6z" id="XMLID_3_"/></g><g id="XMLID_158_"><path d="M12.9,20c-0.2,0-0.3-0.1-0.4-0.3c-0.1-0.2,0-0.5,0.2-0.7l1.5-0.8c0.2-0.1,0.5,0,0.7,0.2    c0.1,0.2,0,0.5-0.2,0.7l-1.5,0.8C13,20,13,20,12.9,20z" id="XMLID_2_"/></g></g></svg>